<mxfile host="app.diagrams.net" agent="Mozilla/5.0 (Windows NT 10.0; Win64; x64) AppleWebKit/537.36 (KHTML, like Gecko) Chrome/135.0.0.0 Safari/537.36" version="26.2.10">
  <diagram name="Страница — 1" id="D-lWrhjqLc9S67s6Voju">
    <mxGraphModel dx="2318" dy="774" grid="1" gridSize="10" guides="1" tooltips="1" connect="1" arrows="1" fold="1" page="1" pageScale="1" pageWidth="827" pageHeight="1169" math="0" shadow="0">
      <root>
        <mxCell id="0" />
        <mxCell id="1" parent="0" />
        <mxCell id="NePE-h_1Sk6IlCAuHnae-1" value="" style="rounded=0;whiteSpace=wrap;html=1;" parent="1" vertex="1">
          <mxGeometry x="220" y="100" width="1290" height="690" as="geometry" />
        </mxCell>
        <mxCell id="NePE-h_1Sk6IlCAuHnae-2" value="&lt;font style=&quot;font-size: 36px;&quot;&gt;Отображение объектов&lt;/font&gt;" style="rounded=0;whiteSpace=wrap;html=1;" parent="1" vertex="1">
          <mxGeometry x="240" y="120" width="1060" height="480" as="geometry" />
        </mxCell>
        <mxCell id="NePE-h_1Sk6IlCAuHnae-11" value="" style="group" parent="1" vertex="1" connectable="0">
          <mxGeometry x="1390" y="100" width="120" height="40" as="geometry" />
        </mxCell>
        <mxCell id="NePE-h_1Sk6IlCAuHnae-7" value="&lt;font style=&quot;font-size: 36px;&quot;&gt;х&lt;/font&gt;" style="rounded=0;whiteSpace=wrap;html=1;align=center;" parent="NePE-h_1Sk6IlCAuHnae-11" vertex="1">
          <mxGeometry x="80" width="40" height="40" as="geometry" />
        </mxCell>
        <mxCell id="NePE-h_1Sk6IlCAuHnae-8" value="" style="rounded=0;whiteSpace=wrap;html=1;align=center;" parent="NePE-h_1Sk6IlCAuHnae-11" vertex="1">
          <mxGeometry x="40" width="40" height="40" as="geometry" />
        </mxCell>
        <mxCell id="NePE-h_1Sk6IlCAuHnae-9" value="&lt;font style=&quot;font-size: 36px;&quot;&gt;-&lt;/font&gt;" style="rounded=0;whiteSpace=wrap;html=1;align=center;" parent="NePE-h_1Sk6IlCAuHnae-11" vertex="1">
          <mxGeometry width="40" height="40" as="geometry" />
        </mxCell>
        <mxCell id="NePE-h_1Sk6IlCAuHnae-10" value="" style="rounded=0;whiteSpace=wrap;html=1;align=center;" parent="NePE-h_1Sk6IlCAuHnae-11" vertex="1">
          <mxGeometry x="50" y="10" width="20" height="20" as="geometry" />
        </mxCell>
        <mxCell id="1PRl7FTFAPTUtKLuEqwz-1" value="&lt;font style=&quot;font-size: 20px;&quot;&gt;Редактировать объекты&lt;/font&gt;" style="rounded=1;whiteSpace=wrap;html=1;" parent="1" vertex="1">
          <mxGeometry x="1310" y="240" width="190" height="60" as="geometry" />
        </mxCell>
        <mxCell id="1PRl7FTFAPTUtKLuEqwz-2" value="&lt;font style=&quot;font-size: 20px;&quot;&gt;Описать параметры&lt;/font&gt;" style="rounded=1;whiteSpace=wrap;html=1;" parent="1" vertex="1">
          <mxGeometry x="1310" y="160" width="190" height="60" as="geometry" />
        </mxCell>
        <mxCell id="1PRl7FTFAPTUtKLuEqwz-4" value="&lt;span style=&quot;font-size: 20px;&quot;&gt;Остановить&lt;/span&gt;" style="rounded=1;whiteSpace=wrap;html=1;" parent="1" vertex="1">
          <mxGeometry x="1310" y="710" width="190" height="60" as="geometry" />
        </mxCell>
        <mxCell id="1PRl7FTFAPTUtKLuEqwz-8" value="&lt;font style=&quot;font-size: 36px;&quot;&gt;Техническая информация&lt;/font&gt;" style="rounded=0;whiteSpace=wrap;html=1;" parent="1" vertex="1">
          <mxGeometry x="240" y="630" width="1060" height="140" as="geometry" />
        </mxCell>
        <mxCell id="1PRl7FTFAPTUtKLuEqwz-34" value="" style="group" parent="1" vertex="1" connectable="0">
          <mxGeometry x="210" y="820" width="440" height="690" as="geometry" />
        </mxCell>
        <mxCell id="1PRl7FTFAPTUtKLuEqwz-9" value="" style="rounded=0;whiteSpace=wrap;html=1;" parent="1PRl7FTFAPTUtKLuEqwz-34" vertex="1">
          <mxGeometry width="440" height="690" as="geometry" />
        </mxCell>
        <mxCell id="1PRl7FTFAPTUtKLuEqwz-11" value="&lt;font style=&quot;font-size: 18px;&quot;&gt;Список параметров для всех объектов&lt;/font&gt;" style="swimlane;fontStyle=0;childLayout=stackLayout;horizontal=1;startSize=30;horizontalStack=0;resizeParent=1;resizeParentMax=0;resizeLast=0;collapsible=1;marginBottom=0;whiteSpace=wrap;html=1;" parent="1PRl7FTFAPTUtKLuEqwz-34" vertex="1">
          <mxGeometry width="410" height="120" as="geometry">
            <mxRectangle x="860" y="100" width="380" height="40" as="alternateBounds" />
          </mxGeometry>
        </mxCell>
        <mxCell id="1PRl7FTFAPTUtKLuEqwz-12" value="Имя первого параметра" style="text;strokeColor=none;fillColor=none;align=left;verticalAlign=middle;spacingLeft=4;spacingRight=4;overflow=hidden;points=[[0,0.5],[1,0.5]];portConstraint=eastwest;rotatable=0;whiteSpace=wrap;html=1;" parent="1PRl7FTFAPTUtKLuEqwz-11" vertex="1">
          <mxGeometry y="30" width="410" height="30" as="geometry" />
        </mxCell>
        <mxCell id="1PRl7FTFAPTUtKLuEqwz-13" value="Имя второго параметра" style="text;strokeColor=none;fillColor=none;align=left;verticalAlign=middle;spacingLeft=4;spacingRight=4;overflow=hidden;points=[[0,0.5],[1,0.5]];portConstraint=eastwest;rotatable=0;whiteSpace=wrap;html=1;" parent="1PRl7FTFAPTUtKLuEqwz-11" vertex="1">
          <mxGeometry y="60" width="410" height="30" as="geometry" />
        </mxCell>
        <mxCell id="1PRl7FTFAPTUtKLuEqwz-14" value="Имя третьего параметра" style="text;strokeColor=none;fillColor=none;align=left;verticalAlign=middle;spacingLeft=4;spacingRight=4;overflow=hidden;points=[[0,0.5],[1,0.5]];portConstraint=eastwest;rotatable=0;whiteSpace=wrap;html=1;" parent="1PRl7FTFAPTUtKLuEqwz-11" vertex="1">
          <mxGeometry y="90" width="410" height="30" as="geometry" />
        </mxCell>
        <mxCell id="1PRl7FTFAPTUtKLuEqwz-28" value="&lt;font style=&quot;font-size: 24px;&quot;&gt;х&lt;/font&gt;" style="rounded=0;whiteSpace=wrap;html=1;align=center;" parent="1PRl7FTFAPTUtKLuEqwz-34" vertex="1">
          <mxGeometry x="410" y="90" width="30" height="30" as="geometry" />
        </mxCell>
        <mxCell id="1PRl7FTFAPTUtKLuEqwz-30" value="&lt;font style=&quot;font-size: 24px;&quot;&gt;х&lt;/font&gt;" style="rounded=0;whiteSpace=wrap;html=1;align=center;" parent="1PRl7FTFAPTUtKLuEqwz-34" vertex="1">
          <mxGeometry x="410" y="60" width="30" height="30" as="geometry" />
        </mxCell>
        <mxCell id="1PRl7FTFAPTUtKLuEqwz-31" value="&lt;font style=&quot;font-size: 24px;&quot;&gt;х&lt;/font&gt;" style="rounded=0;whiteSpace=wrap;html=1;align=center;" parent="1PRl7FTFAPTUtKLuEqwz-34" vertex="1">
          <mxGeometry x="410" y="30" width="30" height="30" as="geometry" />
        </mxCell>
        <mxCell id="1PRl7FTFAPTUtKLuEqwz-33" value="&lt;font style=&quot;font-size: 36px;&quot;&gt;+&lt;/font&gt;" style="rounded=0;whiteSpace=wrap;html=1;align=center;" parent="1PRl7FTFAPTUtKLuEqwz-34" vertex="1">
          <mxGeometry x="390" y="640" width="50" height="50" as="geometry" />
        </mxCell>
        <mxCell id="1PRl7FTFAPTUtKLuEqwz-35" value="&lt;font style=&quot;font-size: 36px;&quot;&gt;Основной интерфейс&lt;/font&gt;" style="text;html=1;align=center;verticalAlign=middle;whiteSpace=wrap;rounded=0;" parent="1" vertex="1">
          <mxGeometry x="-130" y="45" width="200" height="150" as="geometry" />
        </mxCell>
        <mxCell id="1PRl7FTFAPTUtKLuEqwz-38" style="edgeStyle=orthogonalEdgeStyle;rounded=0;orthogonalLoop=1;jettySize=auto;html=1;entryX=0;entryY=0.167;entryDx=0;entryDy=0;entryPerimeter=0;" parent="1" source="1PRl7FTFAPTUtKLuEqwz-37" target="1PRl7FTFAPTUtKLuEqwz-11" edge="1">
          <mxGeometry relative="1" as="geometry">
            <mxPoint x="210.00000000000045" y="875" as="targetPoint" />
          </mxGeometry>
        </mxCell>
        <mxCell id="1PRl7FTFAPTUtKLuEqwz-37" value="&lt;font style=&quot;font-size: 36px;&quot;&gt;Меню описания параметров&lt;/font&gt;" style="text;html=1;align=center;verticalAlign=middle;whiteSpace=wrap;rounded=0;" parent="1" vertex="1">
          <mxGeometry x="-180" y="765" width="200" height="150" as="geometry" />
        </mxCell>
        <mxCell id="1PRl7FTFAPTUtKLuEqwz-39" style="edgeStyle=orthogonalEdgeStyle;rounded=0;orthogonalLoop=1;jettySize=auto;html=1;entryX=-0.002;entryY=0.03;entryDx=0;entryDy=0;entryPerimeter=0;" parent="1" source="1PRl7FTFAPTUtKLuEqwz-35" target="NePE-h_1Sk6IlCAuHnae-1" edge="1">
          <mxGeometry relative="1" as="geometry" />
        </mxCell>
        <mxCell id="1PRl7FTFAPTUtKLuEqwz-40" value="" style="group" parent="1" vertex="1" connectable="0">
          <mxGeometry x="2023" y="100" width="1290" height="770" as="geometry" />
        </mxCell>
        <mxCell id="NePE-h_1Sk6IlCAuHnae-3" value="" style="rounded=0;whiteSpace=wrap;html=1;" parent="1PRl7FTFAPTUtKLuEqwz-40" vertex="1">
          <mxGeometry width="1290" height="690" as="geometry" />
        </mxCell>
        <mxCell id="NePE-h_1Sk6IlCAuHnae-12" value="" style="group" parent="1PRl7FTFAPTUtKLuEqwz-40" vertex="1" connectable="0">
          <mxGeometry x="1170" width="120" height="40" as="geometry" />
        </mxCell>
        <mxCell id="NePE-h_1Sk6IlCAuHnae-13" value="&lt;font style=&quot;font-size: 36px;&quot;&gt;х&lt;/font&gt;" style="rounded=0;whiteSpace=wrap;html=1;align=center;" parent="NePE-h_1Sk6IlCAuHnae-12" vertex="1">
          <mxGeometry x="80" width="40" height="40" as="geometry" />
        </mxCell>
        <mxCell id="NePE-h_1Sk6IlCAuHnae-14" value="" style="rounded=0;whiteSpace=wrap;html=1;align=center;" parent="NePE-h_1Sk6IlCAuHnae-12" vertex="1">
          <mxGeometry x="40" width="40" height="40" as="geometry" />
        </mxCell>
        <mxCell id="NePE-h_1Sk6IlCAuHnae-15" value="&lt;font style=&quot;font-size: 36px;&quot;&gt;-&lt;/font&gt;" style="rounded=0;whiteSpace=wrap;html=1;align=center;" parent="NePE-h_1Sk6IlCAuHnae-12" vertex="1">
          <mxGeometry width="40" height="40" as="geometry" />
        </mxCell>
        <mxCell id="NePE-h_1Sk6IlCAuHnae-16" value="" style="rounded=0;whiteSpace=wrap;html=1;align=center;" parent="NePE-h_1Sk6IlCAuHnae-12" vertex="1">
          <mxGeometry x="50" y="10" width="20" height="20" as="geometry" />
        </mxCell>
        <mxCell id="VOtrUeMJQokVgE4UoooD-1" value="" style="rounded=0;whiteSpace=wrap;html=1;" vertex="1" parent="1PRl7FTFAPTUtKLuEqwz-40">
          <mxGeometry x="17" y="50" width="513" height="310" as="geometry" />
        </mxCell>
        <mxCell id="VOtrUeMJQokVgE4UoooD-2" value="&lt;font style=&quot;font-size: 36px;&quot;&gt;Редактирование функции main&lt;/font&gt;" style="rounded=0;whiteSpace=wrap;html=1;" vertex="1" parent="1PRl7FTFAPTUtKLuEqwz-40">
          <mxGeometry x="17" y="380" width="513" height="260" as="geometry" />
        </mxCell>
        <mxCell id="VOtrUeMJQokVgE4UoooD-3" value="" style="rounded=0;whiteSpace=wrap;html=1;" vertex="1" parent="1PRl7FTFAPTUtKLuEqwz-40">
          <mxGeometry x="550" y="50" width="340" height="620" as="geometry" />
        </mxCell>
        <mxCell id="VOtrUeMJQokVgE4UoooD-4" value="" style="rounded=0;whiteSpace=wrap;html=1;" vertex="1" parent="1PRl7FTFAPTUtKLuEqwz-40">
          <mxGeometry x="910" y="50" width="350" height="620" as="geometry" />
        </mxCell>
        <mxCell id="VOtrUeMJQokVgE4UoooD-5" value="&lt;font style=&quot;font-size: 18px;&quot;&gt;Список типов объектов&lt;/font&gt;" style="swimlane;fontStyle=0;childLayout=stackLayout;horizontal=1;startSize=30;horizontalStack=0;resizeParent=1;resizeParentMax=0;resizeLast=0;collapsible=1;marginBottom=0;whiteSpace=wrap;html=1;" vertex="1" parent="1PRl7FTFAPTUtKLuEqwz-40">
          <mxGeometry x="17" y="50" width="483" height="120" as="geometry" />
        </mxCell>
        <mxCell id="VOtrUeMJQokVgE4UoooD-7" value="Имя типа 1" style="text;strokeColor=none;fillColor=none;align=left;verticalAlign=middle;spacingLeft=4;spacingRight=4;overflow=hidden;points=[[0,0.5],[1,0.5]];portConstraint=eastwest;rotatable=0;whiteSpace=wrap;html=1;" vertex="1" parent="VOtrUeMJQokVgE4UoooD-5">
          <mxGeometry y="30" width="483" height="30" as="geometry" />
        </mxCell>
        <mxCell id="VOtrUeMJQokVgE4UoooD-8" value="Имя типа 2" style="text;strokeColor=none;fillColor=none;align=left;verticalAlign=middle;spacingLeft=4;spacingRight=4;overflow=hidden;points=[[0,0.5],[1,0.5]];portConstraint=eastwest;rotatable=0;whiteSpace=wrap;html=1;" vertex="1" parent="VOtrUeMJQokVgE4UoooD-5">
          <mxGeometry y="60" width="483" height="30" as="geometry" />
        </mxCell>
        <mxCell id="VOtrUeMJQokVgE4UoooD-9" value="Имя типа 3" style="text;strokeColor=none;fillColor=none;align=left;verticalAlign=middle;spacingLeft=4;spacingRight=4;overflow=hidden;points=[[0,0.5],[1,0.5]];portConstraint=eastwest;rotatable=0;whiteSpace=wrap;html=1;" vertex="1" parent="VOtrUeMJQokVgE4UoooD-5">
          <mxGeometry y="90" width="483" height="30" as="geometry" />
        </mxCell>
        <mxCell id="VOtrUeMJQokVgE4UoooD-20" value="&lt;font style=&quot;font-size: 36px;&quot;&gt;+&lt;/font&gt;" style="rounded=0;whiteSpace=wrap;html=1;align=center;" vertex="1" parent="1PRl7FTFAPTUtKLuEqwz-40">
          <mxGeometry x="490" y="320" width="40" height="40" as="geometry" />
        </mxCell>
        <mxCell id="VOtrUeMJQokVgE4UoooD-21" value="&lt;font style=&quot;font-size: 36px;&quot;&gt;+&lt;/font&gt;" style="rounded=0;whiteSpace=wrap;html=1;align=center;" vertex="1" parent="1PRl7FTFAPTUtKLuEqwz-40">
          <mxGeometry x="850" y="630" width="40" height="40" as="geometry" />
        </mxCell>
        <mxCell id="VOtrUeMJQokVgE4UoooD-22" value="&lt;font style=&quot;font-size: 36px;&quot;&gt;+&lt;/font&gt;" style="rounded=0;whiteSpace=wrap;html=1;align=center;" vertex="1" parent="1PRl7FTFAPTUtKLuEqwz-40">
          <mxGeometry x="1220" y="630" width="40" height="40" as="geometry" />
        </mxCell>
        <mxCell id="VOtrUeMJQokVgE4UoooD-33" value="&lt;font style=&quot;font-size: 24px;&quot;&gt;х&lt;/font&gt;" style="rounded=0;whiteSpace=wrap;html=1;align=center;" vertex="1" parent="1PRl7FTFAPTUtKLuEqwz-40">
          <mxGeometry x="500" y="80" width="30" height="30" as="geometry" />
        </mxCell>
        <mxCell id="VOtrUeMJQokVgE4UoooD-53" value="&lt;font style=&quot;font-size: 24px;&quot;&gt;х&lt;/font&gt;" style="rounded=0;whiteSpace=wrap;html=1;align=center;" vertex="1" parent="1PRl7FTFAPTUtKLuEqwz-40">
          <mxGeometry x="500" y="110" width="30" height="30" as="geometry" />
        </mxCell>
        <mxCell id="VOtrUeMJQokVgE4UoooD-54" value="&lt;font style=&quot;font-size: 24px;&quot;&gt;х&lt;/font&gt;" style="rounded=0;whiteSpace=wrap;html=1;align=center;" vertex="1" parent="1PRl7FTFAPTUtKLuEqwz-40">
          <mxGeometry x="500" y="140" width="30" height="30" as="geometry" />
        </mxCell>
        <mxCell id="VOtrUeMJQokVgE4UoooD-97" value="&lt;font style=&quot;font-size: 18px;&quot;&gt;Список объектов&lt;/font&gt;" style="swimlane;fontStyle=0;childLayout=stackLayout;horizontal=1;startSize=30;horizontalStack=0;resizeParent=1;resizeParentMax=0;resizeLast=0;collapsible=1;marginBottom=0;whiteSpace=wrap;html=1;" vertex="1" parent="1PRl7FTFAPTUtKLuEqwz-40">
          <mxGeometry x="580" y="50" width="280" height="120" as="geometry" />
        </mxCell>
        <mxCell id="VOtrUeMJQokVgE4UoooD-98" value="Объект 1" style="text;strokeColor=none;fillColor=none;align=left;verticalAlign=middle;spacingLeft=4;spacingRight=4;overflow=hidden;points=[[0,0.5],[1,0.5]];portConstraint=eastwest;rotatable=0;whiteSpace=wrap;html=1;" vertex="1" parent="VOtrUeMJQokVgE4UoooD-97">
          <mxGeometry y="30" width="280" height="30" as="geometry" />
        </mxCell>
        <mxCell id="VOtrUeMJQokVgE4UoooD-99" value="Объект 2" style="text;strokeColor=none;fillColor=none;align=left;verticalAlign=middle;spacingLeft=4;spacingRight=4;overflow=hidden;points=[[0,0.5],[1,0.5]];portConstraint=eastwest;rotatable=0;whiteSpace=wrap;html=1;" vertex="1" parent="VOtrUeMJQokVgE4UoooD-97">
          <mxGeometry y="60" width="280" height="30" as="geometry" />
        </mxCell>
        <mxCell id="VOtrUeMJQokVgE4UoooD-100" value="Объект 3" style="text;strokeColor=none;fillColor=none;align=left;verticalAlign=middle;spacingLeft=4;spacingRight=4;overflow=hidden;points=[[0,0.5],[1,0.5]];portConstraint=eastwest;rotatable=0;whiteSpace=wrap;html=1;" vertex="1" parent="VOtrUeMJQokVgE4UoooD-97">
          <mxGeometry y="90" width="280" height="30" as="geometry" />
        </mxCell>
        <mxCell id="VOtrUeMJQokVgE4UoooD-101" value="&lt;font style=&quot;font-size: 24px;&quot;&gt;х&lt;/font&gt;" style="rounded=0;whiteSpace=wrap;html=1;align=center;" vertex="1" parent="1PRl7FTFAPTUtKLuEqwz-40">
          <mxGeometry x="860" y="80" width="30" height="30" as="geometry" />
        </mxCell>
        <mxCell id="VOtrUeMJQokVgE4UoooD-102" value="&lt;font style=&quot;font-size: 24px;&quot;&gt;х&lt;/font&gt;" style="rounded=0;whiteSpace=wrap;html=1;align=center;" vertex="1" parent="1PRl7FTFAPTUtKLuEqwz-40">
          <mxGeometry x="860" y="110" width="30" height="30" as="geometry" />
        </mxCell>
        <mxCell id="VOtrUeMJQokVgE4UoooD-103" value="&lt;font style=&quot;font-size: 24px;&quot;&gt;х&lt;/font&gt;" style="rounded=0;whiteSpace=wrap;html=1;align=center;" vertex="1" parent="1PRl7FTFAPTUtKLuEqwz-40">
          <mxGeometry x="860" y="140" width="30" height="30" as="geometry" />
        </mxCell>
        <mxCell id="VOtrUeMJQokVgE4UoooD-104" value="&lt;font style=&quot;font-size: 14px;&quot;&gt;Список начальных параметров для каждого объекта&lt;/font&gt;" style="swimlane;fontStyle=0;childLayout=stackLayout;horizontal=1;startSize=30;horizontalStack=0;resizeParent=1;resizeParentMax=0;resizeLast=0;collapsible=1;marginBottom=0;whiteSpace=wrap;html=1;" vertex="1" parent="1PRl7FTFAPTUtKLuEqwz-40">
          <mxGeometry x="910" y="50" width="320" height="120" as="geometry" />
        </mxCell>
        <mxCell id="VOtrUeMJQokVgE4UoooD-105" value="Параметр 1" style="text;strokeColor=none;fillColor=none;align=left;verticalAlign=middle;spacingLeft=4;spacingRight=4;overflow=hidden;points=[[0,0.5],[1,0.5]];portConstraint=eastwest;rotatable=0;whiteSpace=wrap;html=1;" vertex="1" parent="VOtrUeMJQokVgE4UoooD-104">
          <mxGeometry y="30" width="320" height="30" as="geometry" />
        </mxCell>
        <mxCell id="VOtrUeMJQokVgE4UoooD-106" value="Параметр 2" style="text;strokeColor=none;fillColor=none;align=left;verticalAlign=middle;spacingLeft=4;spacingRight=4;overflow=hidden;points=[[0,0.5],[1,0.5]];portConstraint=eastwest;rotatable=0;whiteSpace=wrap;html=1;" vertex="1" parent="VOtrUeMJQokVgE4UoooD-104">
          <mxGeometry y="60" width="320" height="30" as="geometry" />
        </mxCell>
        <mxCell id="VOtrUeMJQokVgE4UoooD-107" value="Параметр 3" style="text;strokeColor=none;fillColor=none;align=left;verticalAlign=middle;spacingLeft=4;spacingRight=4;overflow=hidden;points=[[0,0.5],[1,0.5]];portConstraint=eastwest;rotatable=0;whiteSpace=wrap;html=1;" vertex="1" parent="VOtrUeMJQokVgE4UoooD-104">
          <mxGeometry y="90" width="320" height="30" as="geometry" />
        </mxCell>
        <mxCell id="VOtrUeMJQokVgE4UoooD-108" value="&lt;font style=&quot;font-size: 24px;&quot;&gt;х&lt;/font&gt;" style="rounded=0;whiteSpace=wrap;html=1;align=center;" vertex="1" parent="1PRl7FTFAPTUtKLuEqwz-40">
          <mxGeometry x="1230" y="80" width="30" height="30" as="geometry" />
        </mxCell>
        <mxCell id="VOtrUeMJQokVgE4UoooD-109" value="&lt;font style=&quot;font-size: 24px;&quot;&gt;х&lt;/font&gt;" style="rounded=0;whiteSpace=wrap;html=1;align=center;" vertex="1" parent="1PRl7FTFAPTUtKLuEqwz-40">
          <mxGeometry x="1230" y="110" width="30" height="30" as="geometry" />
        </mxCell>
        <mxCell id="VOtrUeMJQokVgE4UoooD-110" value="&lt;font style=&quot;font-size: 24px;&quot;&gt;х&lt;/font&gt;" style="rounded=0;whiteSpace=wrap;html=1;align=center;" vertex="1" parent="1PRl7FTFAPTUtKLuEqwz-40">
          <mxGeometry x="1230" y="140" width="30" height="30" as="geometry" />
        </mxCell>
        <mxCell id="VOtrUeMJQokVgE4UoooD-113" value="" style="group" vertex="1" connectable="0" parent="1PRl7FTFAPTUtKLuEqwz-40">
          <mxGeometry x="550" y="80" width="30" height="30" as="geometry" />
        </mxCell>
        <mxCell id="VOtrUeMJQokVgE4UoooD-111" value="" style="rounded=0;whiteSpace=wrap;html=1;align=center;" vertex="1" parent="VOtrUeMJQokVgE4UoooD-113">
          <mxGeometry width="30" height="30" as="geometry" />
        </mxCell>
        <mxCell id="VOtrUeMJQokVgE4UoooD-112" value="" style="rounded=0;whiteSpace=wrap;html=1;align=center;" vertex="1" parent="VOtrUeMJQokVgE4UoooD-113">
          <mxGeometry x="7.5" y="7.5" width="15" height="15" as="geometry" />
        </mxCell>
        <mxCell id="VOtrUeMJQokVgE4UoooD-115" value="" style="group" vertex="1" connectable="0" parent="1PRl7FTFAPTUtKLuEqwz-40">
          <mxGeometry x="550" y="110" width="30" height="30" as="geometry" />
        </mxCell>
        <mxCell id="VOtrUeMJQokVgE4UoooD-116" value="" style="rounded=0;whiteSpace=wrap;html=1;align=center;" vertex="1" parent="VOtrUeMJQokVgE4UoooD-115">
          <mxGeometry width="30" height="30" as="geometry" />
        </mxCell>
        <mxCell id="VOtrUeMJQokVgE4UoooD-117" value="" style="rounded=0;whiteSpace=wrap;html=1;align=center;" vertex="1" parent="VOtrUeMJQokVgE4UoooD-115">
          <mxGeometry x="7.5" y="7.5" width="15" height="15" as="geometry" />
        </mxCell>
        <mxCell id="VOtrUeMJQokVgE4UoooD-118" value="" style="group" vertex="1" connectable="0" parent="1PRl7FTFAPTUtKLuEqwz-40">
          <mxGeometry x="550" y="140" width="30" height="30" as="geometry" />
        </mxCell>
        <mxCell id="VOtrUeMJQokVgE4UoooD-119" value="" style="rounded=0;whiteSpace=wrap;html=1;align=center;" vertex="1" parent="VOtrUeMJQokVgE4UoooD-118">
          <mxGeometry width="30" height="30" as="geometry" />
        </mxCell>
        <mxCell id="VOtrUeMJQokVgE4UoooD-120" value="" style="rounded=0;whiteSpace=wrap;html=1;align=center;" vertex="1" parent="VOtrUeMJQokVgE4UoooD-118">
          <mxGeometry x="7.5" y="7.5" width="15" height="15" as="geometry" />
        </mxCell>
        <mxCell id="VOtrUeMJQokVgE4UoooD-160" value="Очистить" style="rounded=1;whiteSpace=wrap;html=1;" vertex="1" parent="1PRl7FTFAPTUtKLuEqwz-40">
          <mxGeometry x="167" y="651" width="93" height="29" as="geometry" />
        </mxCell>
        <mxCell id="VOtrUeMJQokVgE4UoooD-161" value="Востановить" style="rounded=1;whiteSpace=wrap;html=1;" vertex="1" parent="1PRl7FTFAPTUtKLuEqwz-40">
          <mxGeometry x="297" y="651" width="93" height="29" as="geometry" />
        </mxCell>
        <mxCell id="VOtrUeMJQokVgE4UoooD-162" value="Сохранить" style="rounded=1;whiteSpace=wrap;html=1;" vertex="1" parent="1PRl7FTFAPTUtKLuEqwz-40">
          <mxGeometry x="427" y="651" width="93" height="29" as="geometry" />
        </mxCell>
        <mxCell id="VOtrUeMJQokVgE4UoooD-185" value="" style="group" vertex="1" connectable="0" parent="1PRl7FTFAPTUtKLuEqwz-40">
          <mxGeometry x="155" y="10" width="990" height="30" as="geometry" />
        </mxCell>
        <mxCell id="VOtrUeMJQokVgE4UoooD-184" value="" style="group" vertex="1" connectable="0" parent="VOtrUeMJQokVgE4UoooD-185">
          <mxGeometry width="894.7856315179605" height="30" as="geometry" />
        </mxCell>
        <mxCell id="VOtrUeMJQokVgE4UoooD-182" value="" style="group" vertex="1" connectable="0" parent="VOtrUeMJQokVgE4UoooD-184">
          <mxGeometry width="757.1263035921204" height="30" as="geometry" />
        </mxCell>
        <mxCell id="VOtrUeMJQokVgE4UoooD-176" value="" style="group" vertex="1" connectable="0" parent="VOtrUeMJQokVgE4UoooD-182">
          <mxGeometry width="270.7300115874855" height="30" as="geometry" />
        </mxCell>
        <mxCell id="VOtrUeMJQokVgE4UoooD-177" value="Введите тип" style="rounded=0;whiteSpace=wrap;html=1;" vertex="1" parent="VOtrUeMJQokVgE4UoooD-176">
          <mxGeometry x="-137.65932792584005" width="344.1483198146002" height="30" as="geometry" />
        </mxCell>
        <mxCell id="VOtrUeMJQokVgE4UoooD-180" value="Введите объект" style="rounded=0;whiteSpace=wrap;html=1;" vertex="1" parent="VOtrUeMJQokVgE4UoooD-182">
          <mxGeometry x="206.48899188876013" width="344.1483198146002" height="30" as="geometry" />
        </mxCell>
        <mxCell id="VOtrUeMJQokVgE4UoooD-152" value="Введите параметр" style="rounded=0;whiteSpace=wrap;html=1;" vertex="1" parent="VOtrUeMJQokVgE4UoooD-184">
          <mxGeometry x="550.6373117033603" width="344.14831981460026" height="30" as="geometry" />
        </mxCell>
        <mxCell id="VOtrUeMJQokVgE4UoooD-181" value="&lt;font style=&quot;font-size: 14px;&quot;&gt;поиск&lt;/font&gt;" style="rounded=1;whiteSpace=wrap;html=1;" vertex="1" parent="VOtrUeMJQokVgE4UoooD-185">
          <mxGeometry x="906.2572421784473" width="83.74275782155273" height="30" as="geometry" />
        </mxCell>
        <mxCell id="VOtrUeMJQokVgE4UoooD-189" value="сохранено / не сохранено" style="rounded=0;whiteSpace=wrap;html=1;" vertex="1" parent="1PRl7FTFAPTUtKLuEqwz-40">
          <mxGeometry x="17" y="640" width="123" height="40" as="geometry" />
        </mxCell>
        <mxCell id="1PRl7FTFAPTUtKLuEqwz-41" value="&lt;font style=&quot;font-size: 36px;&quot;&gt;Интерфейс редактирования объектов&lt;/font&gt;" style="text;html=1;align=center;verticalAlign=middle;whiteSpace=wrap;rounded=0;" parent="1" vertex="1">
          <mxGeometry x="1560" y="46" width="290" height="150" as="geometry" />
        </mxCell>
        <mxCell id="1PRl7FTFAPTUtKLuEqwz-42" style="edgeStyle=orthogonalEdgeStyle;rounded=0;orthogonalLoop=1;jettySize=auto;html=1;entryX=0.002;entryY=0.032;entryDx=0;entryDy=0;entryPerimeter=0;" parent="1" source="1PRl7FTFAPTUtKLuEqwz-41" target="NePE-h_1Sk6IlCAuHnae-3" edge="1">
          <mxGeometry relative="1" as="geometry" />
        </mxCell>
        <mxCell id="1PRl7FTFAPTUtKLuEqwz-43" value="&lt;font style=&quot;font-size: 20px;&quot;&gt;Запустить&lt;/font&gt;" style="rounded=1;whiteSpace=wrap;html=1;" parent="1" vertex="1">
          <mxGeometry x="1310" y="630" width="190" height="60" as="geometry" />
        </mxCell>
        <mxCell id="1PRl7FTFAPTUtKLuEqwz-44" value="&lt;font style=&quot;font-size: 18px;&quot;&gt;Меняется на &quot;Продолжить&quot; во время запуска системы&lt;/font&gt;" style="text;html=1;align=center;verticalAlign=middle;whiteSpace=wrap;rounded=0;" parent="1" vertex="1">
          <mxGeometry x="1540" y="677.5" width="215" height="45" as="geometry" />
        </mxCell>
        <mxCell id="1PRl7FTFAPTUtKLuEqwz-46" style="edgeStyle=orthogonalEdgeStyle;rounded=0;orthogonalLoop=1;jettySize=auto;html=1;entryX=0.46;entryY=1.015;entryDx=0;entryDy=0;entryPerimeter=0;" parent="1" source="1PRl7FTFAPTUtKLuEqwz-44" target="1PRl7FTFAPTUtKLuEqwz-43" edge="1">
          <mxGeometry relative="1" as="geometry">
            <Array as="points">
              <mxPoint x="1397" y="700" />
            </Array>
          </mxGeometry>
        </mxCell>
        <mxCell id="1PRl7FTFAPTUtKLuEqwz-47" value="&lt;span style=&quot;font-size: 18px;&quot;&gt;Активна только при запуске системы&lt;/span&gt;" style="text;html=1;align=center;verticalAlign=middle;whiteSpace=wrap;rounded=0;" parent="1" vertex="1">
          <mxGeometry x="1550" y="760" width="215" height="45" as="geometry" />
        </mxCell>
        <mxCell id="1PRl7FTFAPTUtKLuEqwz-48" style="edgeStyle=orthogonalEdgeStyle;rounded=0;orthogonalLoop=1;jettySize=auto;html=1;entryX=0.459;entryY=1;entryDx=0;entryDy=0;entryPerimeter=0;" parent="1" source="1PRl7FTFAPTUtKLuEqwz-47" target="1PRl7FTFAPTUtKLuEqwz-4" edge="1">
          <mxGeometry relative="1" as="geometry">
            <Array as="points">
              <mxPoint x="1530" y="783" />
              <mxPoint x="1397" y="783" />
            </Array>
          </mxGeometry>
        </mxCell>
        <mxCell id="1PRl7FTFAPTUtKLuEqwz-58" value="" style="group" parent="1" vertex="1" connectable="0">
          <mxGeometry x="1300" y="500" width="210" height="90" as="geometry" />
        </mxCell>
        <mxCell id="1PRl7FTFAPTUtKLuEqwz-55" value="" style="group" parent="1PRl7FTFAPTUtKLuEqwz-58" vertex="1" connectable="0">
          <mxGeometry width="210" height="80" as="geometry" />
        </mxCell>
        <mxCell id="1PRl7FTFAPTUtKLuEqwz-57" value="&lt;span style=&quot;font-size: 20px;&quot;&gt;Число итераций перед приостановкой&lt;/span&gt;" style="rounded=0;whiteSpace=wrap;html=1;" parent="1PRl7FTFAPTUtKLuEqwz-55" vertex="1">
          <mxGeometry width="210" height="50" as="geometry" />
        </mxCell>
        <mxCell id="1PRl7FTFAPTUtKLuEqwz-56" value="&lt;font style=&quot;font-size: 20px;&quot;&gt;0&lt;/font&gt;" style="rounded=0;whiteSpace=wrap;html=1;" parent="1PRl7FTFAPTUtKLuEqwz-58" vertex="1">
          <mxGeometry y="50" width="210" height="40" as="geometry" />
        </mxCell>
        <mxCell id="1PRl7FTFAPTUtKLuEqwz-59" value="" style="group" parent="1" vertex="1" connectable="0">
          <mxGeometry x="1300" y="400" width="210" height="90" as="geometry" />
        </mxCell>
        <mxCell id="1PRl7FTFAPTUtKLuEqwz-54" value="" style="group" parent="1PRl7FTFAPTUtKLuEqwz-59" vertex="1" connectable="0">
          <mxGeometry width="210" height="50" as="geometry" />
        </mxCell>
        <mxCell id="1PRl7FTFAPTUtKLuEqwz-52" value="&lt;font style=&quot;font-size: 20px;&quot;&gt;Количество итераций&lt;/font&gt;" style="rounded=0;whiteSpace=wrap;html=1;" parent="1PRl7FTFAPTUtKLuEqwz-54" vertex="1">
          <mxGeometry width="210" height="50" as="geometry" />
        </mxCell>
        <mxCell id="1PRl7FTFAPTUtKLuEqwz-50" value="&lt;font style=&quot;font-size: 20px;&quot;&gt;0&lt;/font&gt;" style="rounded=0;whiteSpace=wrap;html=1;" parent="1PRl7FTFAPTUtKLuEqwz-59" vertex="1">
          <mxGeometry y="50" width="210" height="40" as="geometry" />
        </mxCell>
        <mxCell id="1PRl7FTFAPTUtKLuEqwz-60" value="&lt;font style=&quot;font-size: 20px;&quot;&gt;&lt;font style=&quot;&quot;&gt;Отображение &lt;/font&gt;&lt;font style=&quot;&quot;&gt;объектов&lt;/font&gt;&lt;/font&gt;" style="rounded=1;whiteSpace=wrap;html=1;" parent="1" vertex="1">
          <mxGeometry x="1310" y="320" width="190" height="60" as="geometry" />
        </mxCell>
        <mxCell id="1PRl7FTFAPTUtKLuEqwz-63" value="" style="group" parent="1" vertex="1" connectable="0">
          <mxGeometry x="2023" y="911" width="1290" height="690" as="geometry" />
        </mxCell>
        <mxCell id="1PRl7FTFAPTUtKLuEqwz-64" value="" style="rounded=0;whiteSpace=wrap;html=1;" parent="1PRl7FTFAPTUtKLuEqwz-63" vertex="1">
          <mxGeometry width="1290" height="690" as="geometry" />
        </mxCell>
        <mxCell id="1PRl7FTFAPTUtKLuEqwz-65" value="" style="group" parent="1PRl7FTFAPTUtKLuEqwz-63" vertex="1" connectable="0">
          <mxGeometry x="1170" width="120" height="40" as="geometry" />
        </mxCell>
        <mxCell id="1PRl7FTFAPTUtKLuEqwz-66" value="&lt;font style=&quot;font-size: 36px;&quot;&gt;х&lt;/font&gt;" style="rounded=0;whiteSpace=wrap;html=1;align=center;" parent="1PRl7FTFAPTUtKLuEqwz-65" vertex="1">
          <mxGeometry x="80" width="40" height="40" as="geometry" />
        </mxCell>
        <mxCell id="1PRl7FTFAPTUtKLuEqwz-67" value="" style="rounded=0;whiteSpace=wrap;html=1;align=center;" parent="1PRl7FTFAPTUtKLuEqwz-65" vertex="1">
          <mxGeometry x="40" width="40" height="40" as="geometry" />
        </mxCell>
        <mxCell id="1PRl7FTFAPTUtKLuEqwz-68" value="&lt;font style=&quot;font-size: 36px;&quot;&gt;-&lt;/font&gt;" style="rounded=0;whiteSpace=wrap;html=1;align=center;" parent="1PRl7FTFAPTUtKLuEqwz-65" vertex="1">
          <mxGeometry width="40" height="40" as="geometry" />
        </mxCell>
        <mxCell id="1PRl7FTFAPTUtKLuEqwz-69" value="" style="rounded=0;whiteSpace=wrap;html=1;align=center;" parent="1PRl7FTFAPTUtKLuEqwz-65" vertex="1">
          <mxGeometry x="50" y="10" width="20" height="20" as="geometry" />
        </mxCell>
        <mxCell id="1PRl7FTFAPTUtKLuEqwz-70" value="&lt;font style=&quot;font-size: 36px;&quot;&gt;Интерфейс отображения объектов&lt;/font&gt;" style="text;html=1;align=center;verticalAlign=middle;whiteSpace=wrap;rounded=0;" parent="1" vertex="1">
          <mxGeometry x="1560" y="859" width="290" height="150" as="geometry" />
        </mxCell>
        <mxCell id="1PRl7FTFAPTUtKLuEqwz-71" style="edgeStyle=orthogonalEdgeStyle;rounded=0;orthogonalLoop=1;jettySize=auto;html=1;fontFamily=Helvetica;fontSize=12;fontColor=default;" parent="1" source="1PRl7FTFAPTUtKLuEqwz-70" edge="1">
          <mxGeometry relative="1" as="geometry">
            <mxPoint x="2020" y="933" as="targetPoint" />
          </mxGeometry>
        </mxCell>
        <mxCell id="VOtrUeMJQokVgE4UoooD-121" value="" style="group" vertex="1" connectable="0" parent="1">
          <mxGeometry x="2603" y="50" width="30" height="30" as="geometry" />
        </mxCell>
        <mxCell id="VOtrUeMJQokVgE4UoooD-122" value="" style="rounded=0;whiteSpace=wrap;html=1;align=center;" vertex="1" parent="VOtrUeMJQokVgE4UoooD-121">
          <mxGeometry width="30" height="30" as="geometry" />
        </mxCell>
        <mxCell id="VOtrUeMJQokVgE4UoooD-123" value="" style="rounded=0;whiteSpace=wrap;html=1;align=center;" vertex="1" parent="VOtrUeMJQokVgE4UoooD-121">
          <mxGeometry x="7.5" y="7.5" width="15" height="15" as="geometry" />
        </mxCell>
        <mxCell id="VOtrUeMJQokVgE4UoooD-126" style="edgeStyle=orthogonalEdgeStyle;rounded=0;orthogonalLoop=1;jettySize=auto;html=1;entryX=0;entryY=0.5;entryDx=0;entryDy=0;" edge="1" parent="1" source="VOtrUeMJQokVgE4UoooD-125" target="VOtrUeMJQokVgE4UoooD-122">
          <mxGeometry relative="1" as="geometry">
            <mxPoint x="2580" y="60" as="targetPoint" />
          </mxGeometry>
        </mxCell>
        <mxCell id="VOtrUeMJQokVgE4UoooD-125" value="&lt;font style=&quot;font-size: 18px;&quot;&gt;Использовать ли объект&amp;nbsp;&lt;/font&gt;" style="text;html=1;align=center;verticalAlign=middle;whiteSpace=wrap;rounded=0;" vertex="1" parent="1">
          <mxGeometry x="2440" y="45" width="70" height="40" as="geometry" />
        </mxCell>
        <mxCell id="VOtrUeMJQokVgE4UoooD-128" style="edgeStyle=orthogonalEdgeStyle;rounded=0;orthogonalLoop=1;jettySize=auto;html=1;entryX=1;entryY=0.5;entryDx=0;entryDy=0;" edge="1" parent="1" source="VOtrUeMJQokVgE4UoooD-127" target="1PRl7FTFAPTUtKLuEqwz-31">
          <mxGeometry relative="1" as="geometry" />
        </mxCell>
        <mxCell id="VOtrUeMJQokVgE4UoooD-127" value="&lt;font style=&quot;font-size: 18px;&quot;&gt;Удалить&lt;/font&gt;" style="text;html=1;align=center;verticalAlign=middle;whiteSpace=wrap;rounded=0;" vertex="1" parent="1">
          <mxGeometry x="740" y="850" width="80" height="30" as="geometry" />
        </mxCell>
        <mxCell id="VOtrUeMJQokVgE4UoooD-132" style="edgeStyle=orthogonalEdgeStyle;rounded=0;orthogonalLoop=1;jettySize=auto;html=1;" edge="1" parent="1" source="VOtrUeMJQokVgE4UoooD-131" target="1PRl7FTFAPTUtKLuEqwz-33">
          <mxGeometry relative="1" as="geometry" />
        </mxCell>
        <mxCell id="VOtrUeMJQokVgE4UoooD-131" value="&lt;font style=&quot;font-size: 18px;&quot;&gt;Добавить&lt;/font&gt;" style="text;html=1;align=center;verticalAlign=middle;whiteSpace=wrap;rounded=0;" vertex="1" parent="1">
          <mxGeometry x="740" y="1460" width="90" height="50" as="geometry" />
        </mxCell>
        <mxCell id="VOtrUeMJQokVgE4UoooD-137" value="" style="group" vertex="1" connectable="0" parent="1">
          <mxGeometry x="2633" y="50" width="30" height="30" as="geometry" />
        </mxCell>
        <mxCell id="VOtrUeMJQokVgE4UoooD-138" value="" style="rounded=0;whiteSpace=wrap;html=1;align=center;" vertex="1" parent="VOtrUeMJQokVgE4UoooD-137">
          <mxGeometry width="30" height="30" as="geometry" />
        </mxCell>
        <mxCell id="VOtrUeMJQokVgE4UoooD-139" value="" style="rounded=0;whiteSpace=wrap;html=1;align=center;" vertex="1" parent="VOtrUeMJQokVgE4UoooD-137">
          <mxGeometry x="7.5" y="7.5" width="15" height="15" as="geometry" />
        </mxCell>
        <mxCell id="VOtrUeMJQokVgE4UoooD-141" value="" style="verticalLabelPosition=bottom;verticalAlign=top;html=1;shape=mxgraph.basic.tick" vertex="1" parent="VOtrUeMJQokVgE4UoooD-137">
          <mxGeometry x="9" y="8.75" width="12.5" height="12.5" as="geometry" />
        </mxCell>
        <mxCell id="VOtrUeMJQokVgE4UoooD-143" style="edgeStyle=orthogonalEdgeStyle;rounded=0;orthogonalLoop=1;jettySize=auto;html=1;entryX=0.5;entryY=0;entryDx=0;entryDy=0;" edge="1" parent="1" source="VOtrUeMJQokVgE4UoooD-142" target="VOtrUeMJQokVgE4UoooD-122">
          <mxGeometry relative="1" as="geometry" />
        </mxCell>
        <mxCell id="VOtrUeMJQokVgE4UoooD-142" value="нет" style="text;html=1;align=center;verticalAlign=middle;whiteSpace=wrap;rounded=0;" vertex="1" parent="1">
          <mxGeometry x="2597" y="10" width="42" height="15" as="geometry" />
        </mxCell>
        <mxCell id="VOtrUeMJQokVgE4UoooD-145" style="edgeStyle=orthogonalEdgeStyle;rounded=0;orthogonalLoop=1;jettySize=auto;html=1;entryX=0.5;entryY=0;entryDx=0;entryDy=0;" edge="1" parent="1" source="VOtrUeMJQokVgE4UoooD-144" target="VOtrUeMJQokVgE4UoooD-138">
          <mxGeometry relative="1" as="geometry" />
        </mxCell>
        <mxCell id="VOtrUeMJQokVgE4UoooD-144" value="да" style="text;html=1;align=center;verticalAlign=middle;whiteSpace=wrap;rounded=0;" vertex="1" parent="1">
          <mxGeometry x="2627" y="10" width="42" height="15" as="geometry" />
        </mxCell>
        <mxCell id="VOtrUeMJQokVgE4UoooD-147" style="edgeStyle=orthogonalEdgeStyle;rounded=0;orthogonalLoop=1;jettySize=auto;html=1;" edge="1" parent="1" source="VOtrUeMJQokVgE4UoooD-146" target="VOtrUeMJQokVgE4UoooD-2">
          <mxGeometry relative="1" as="geometry" />
        </mxCell>
        <mxCell id="VOtrUeMJQokVgE4UoooD-146" value="&lt;font style=&quot;font-size: 18px;&quot;&gt;Текстовое поле&lt;/font&gt;" style="text;html=1;align=center;verticalAlign=middle;whiteSpace=wrap;rounded=0;" vertex="1" parent="1">
          <mxGeometry x="1830" y="595" width="80" height="30" as="geometry" />
        </mxCell>
        <mxCell id="VOtrUeMJQokVgE4UoooD-149" style="edgeStyle=orthogonalEdgeStyle;rounded=0;orthogonalLoop=1;jettySize=auto;html=1;entryX=1;entryY=0.5;entryDx=0;entryDy=0;" edge="1" parent="1" source="VOtrUeMJQokVgE4UoooD-148" target="VOtrUeMJQokVgE4UoooD-22">
          <mxGeometry relative="1" as="geometry" />
        </mxCell>
        <mxCell id="VOtrUeMJQokVgE4UoooD-148" value="&lt;font style=&quot;font-size: 18px;&quot;&gt;Добавить&lt;/font&gt;" style="text;html=1;align=center;verticalAlign=middle;whiteSpace=wrap;rounded=0;" vertex="1" parent="1">
          <mxGeometry x="3380" y="735" width="90" height="30" as="geometry" />
        </mxCell>
        <mxCell id="VOtrUeMJQokVgE4UoooD-151" style="edgeStyle=orthogonalEdgeStyle;rounded=0;orthogonalLoop=1;jettySize=auto;html=1;entryX=1;entryY=0.5;entryDx=0;entryDy=0;" edge="1" parent="1" source="VOtrUeMJQokVgE4UoooD-150" target="VOtrUeMJQokVgE4UoooD-108">
          <mxGeometry relative="1" as="geometry" />
        </mxCell>
        <mxCell id="VOtrUeMJQokVgE4UoooD-150" value="&lt;font style=&quot;font-size: 18px;&quot;&gt;Удалить&lt;/font&gt;" style="text;html=1;align=center;verticalAlign=middle;whiteSpace=wrap;rounded=0;" vertex="1" parent="1">
          <mxGeometry x="3400" y="180" width="80" height="30" as="geometry" />
        </mxCell>
        <mxCell id="VOtrUeMJQokVgE4UoooD-164" style="edgeStyle=orthogonalEdgeStyle;rounded=0;orthogonalLoop=1;jettySize=auto;html=1;entryX=0;entryY=0.75;entryDx=0;entryDy=0;" edge="1" parent="1" source="VOtrUeMJQokVgE4UoooD-163" target="VOtrUeMJQokVgE4UoooD-2">
          <mxGeometry relative="1" as="geometry" />
        </mxCell>
        <mxCell id="VOtrUeMJQokVgE4UoooD-163" value="&lt;font style=&quot;font-size: 18px;&quot;&gt;Текст внутри зависит от выбора типа&amp;nbsp;&lt;/font&gt;" style="text;html=1;align=center;verticalAlign=middle;whiteSpace=wrap;rounded=0;" vertex="1" parent="1">
          <mxGeometry x="1790" y="660" width="120" height="30" as="geometry" />
        </mxCell>
        <mxCell id="VOtrUeMJQokVgE4UoooD-188" style="edgeStyle=orthogonalEdgeStyle;rounded=0;orthogonalLoop=1;jettySize=auto;html=1;" edge="1" parent="1" source="VOtrUeMJQokVgE4UoooD-187" target="VOtrUeMJQokVgE4UoooD-177">
          <mxGeometry relative="1" as="geometry" />
        </mxCell>
        <mxCell id="VOtrUeMJQokVgE4UoooD-187" value="&lt;font style=&quot;font-size: 18px;&quot;&gt;Сортировка&amp;nbsp;&lt;/font&gt;" style="text;html=1;align=center;verticalAlign=middle;whiteSpace=wrap;rounded=0;" vertex="1" parent="1">
          <mxGeometry x="2182.41" y="20" width="60" height="30" as="geometry" />
        </mxCell>
      </root>
    </mxGraphModel>
  </diagram>
</mxfile>
